<svg xmlns="http://www.w3.org/2000/svg" width="143.006" height="50" viewBox="0 0 143.006 50">
  <g id="logo" transform="translate(-0.03 0.009)">
    <g id="Group_232" data-name="Group 232" transform="translate(56.294 21.971)">
      <path id="Path_367" data-name="Path 367" d="M101.4,53.265a2.552,2.552,0,0,1-1.292-.258.939.939,0,0,1-.412-.827.982.982,0,0,1,.414-.775,1.364,1.364,0,0,1,.982-.362,3.935,3.935,0,0,1,1.085.155c.258.1.568.258.982.465a6.762,6.762,0,0,0,1.292-1.913,34.326,34.326,0,0,0,1.6-4.032c.362-1.085.724-2.223,1.034-3.308.517-1.189,1.137-1.809,1.913-1.809a1.214,1.214,0,0,1,1.137.517,2.116,2.116,0,0,1,.362,1.292,5.384,5.384,0,0,1-.465,2.068,6.254,6.254,0,0,1-1.137,1.913.534.534,0,0,1-.414.207.368.368,0,0,1-.31-.155.469.469,0,0,1-.155-.362.534.534,0,0,1,.207-.414,3.535,3.535,0,0,0,.93-1.6,5.987,5.987,0,0,0,.31-1.7,1.8,1.8,0,0,0-.1-.672c-.1-.155-.207-.207-.465-.207-.465,0-.982.724-1.447,2.119-.1.31-.362,1.086-.724,2.378a24.768,24.768,0,0,1-1.447,3.877,10.169,10.169,0,0,1-1.447,2.273,6.607,6.607,0,0,0,1.137.465,4.92,4.92,0,0,0,1.292.155,4.381,4.381,0,0,0,1.5-.207,5.209,5.209,0,0,0,1.189-.62.4.4,0,0,1,.258-.1.417.417,0,0,1,.465.465.389.389,0,0,1-.207.362,5.844,5.844,0,0,1-1.5.775,6.952,6.952,0,0,1-1.809.258,4.654,4.654,0,0,1-1.292-.155,8.639,8.639,0,0,1-1.809-.776,2.554,2.554,0,0,1-.93.414A2.7,2.7,0,0,1,101.4,53.265Zm-.1-1.344c-.414,0-.672.052-.672.207a.111.111,0,0,0,.1.1,4.118,4.118,0,0,0,.568.052h.465a1.509,1.509,0,0,0,.465-.1,2.307,2.307,0,0,0-.929-.258Z" transform="translate(-99.696 -40.6)"/>
      <path id="Path_368" data-name="Path 368" d="M121.361,53.667a2.726,2.726,0,0,1-1.654-.465,1.633,1.633,0,0,1-.62-1.4,1.407,1.407,0,0,1,.672-1.344,5.051,5.051,0,0,1,1.6-.568c.517-.1,1.4-.207,2.74-.414,1.7-.207,2.688-.31,2.946-.362a26.087,26.087,0,0,0,1.757-3.412,9.785,9.785,0,0,0,.982-3.567c0-.31.155-.465.414-.465.31,0,.414.155.414.465a11.345,11.345,0,0,1-1.085,4.187c-.258.568-.724,1.5-1.344,2.688.465-.052.879-.155,1.344-.207a13.514,13.514,0,0,0,1.4-.31,17.3,17.3,0,0,1,1.034-3.774,30.731,30.731,0,0,1,1.861-3.619.389.389,0,0,1,.362-.207.548.548,0,0,1,.465.465,1.032,1.032,0,0,1-.155.414,24.959,24.959,0,0,0-2.016,4.187,17.974,17.974,0,0,0-.568,2.378l1.292-.465a1.316,1.316,0,0,1,.362-.1.284.284,0,0,1,.258.155.748.748,0,0,1,.1.362.46.46,0,0,1-.258.414,14.485,14.485,0,0,1-1.964.672c-.1.62-.155,1.241-.207,1.861s-.1,1.137-.1,1.551c0,.31-.155.465-.414.465a.411.411,0,0,1-.465-.465,13.563,13.563,0,0,1,.052-1.4c.052-.517.1-1.086.207-1.757-.258.052-.724.155-1.344.258s-1.241.207-1.913.31a9.122,9.122,0,0,1-3.36,3,10.517,10.517,0,0,1-2.793.464Zm-.207-2.791a3.253,3.253,0,0,0-.879.31.7.7,0,0,0-.258.62.825.825,0,0,0,.414.724,2.05,2.05,0,0,0,1.034.207,5.668,5.668,0,0,0,2.688-.724,7.787,7.787,0,0,0,2.173-1.809c-.775.1-1.5.155-2.273.258a19.272,19.272,0,0,0-2.9.414Z" transform="translate(-109.058 -40.744)"/>
      <path id="Path_369" data-name="Path 369" d="M155.872,53.653a5.534,5.534,0,0,0,.776-1.137.284.284,0,0,1,.258-.155.269.269,0,0,1,.207.1.4.4,0,0,1,.1.258,1.6,1.6,0,0,1-.31.62c-.207.31-.414.568-.62.827.258.258.465.517.672.724a5.179,5.179,0,0,0,.62.568.4.4,0,0,1,.1.258.447.447,0,0,1-.155.31c-.052.052-.1.052-.207.052-.052,0-.1-.052-.207-.1a3.508,3.508,0,0,1-.622-.622,9.555,9.555,0,0,0-.724-.724c-.465.362-.827.62-1.137.827a3.791,3.791,0,0,1-1.964.62,2.039,2.039,0,0,1-1.5-.517,1.909,1.909,0,0,1-.568-1.4,2.914,2.914,0,0,1,.776-1.861,4.065,4.065,0,0,1,1.654-1.344,2.328,2.328,0,0,1-.517-.465,1.538,1.538,0,0,1-.258-.776,2.3,2.3,0,0,1,.982-1.757,3.788,3.788,0,0,1,2.532-.982,1.508,1.508,0,0,1,1.137.362,1.264,1.264,0,0,1,.31.93,1.821,1.821,0,0,1-.982,1.447,2.757,2.757,0,0,1-1.137.568.269.269,0,0,1-.207-.1c-.052-.1-.1-.155-.1-.258a.284.284,0,0,1,.207-.31,2.71,2.71,0,0,0,.982-.568,1.339,1.339,0,0,0,.568-.879c0-.31-.258-.465-.724-.465a3.429,3.429,0,0,0-1.913.517,1.659,1.659,0,0,0-.982,1.4,1.074,1.074,0,0,0,.258.62,2.006,2.006,0,0,0,.724.517c.052.052.1.052.1.155a.449.449,0,0,1-.207.362c-.568.414-1.137.776-1.7,1.189a2.408,2.408,0,0,0-.724,1.654,1.246,1.246,0,0,0,.362.93,1.286,1.286,0,0,0,.982.362,3.126,3.126,0,0,0,1.137-.207,4.773,4.773,0,0,0,1.551-.93c-.465-.568-.879-1.034-1.189-1.5a.311.311,0,0,1-.052-.207.353.353,0,0,1,.362-.362c.1,0,.155.052.207.155.1.155.207.31.362.517C155.3,52.928,155.562,53.238,155.872,53.653Z" transform="translate(-124.287 -43.675)"/>
      <path id="Path_370" data-name="Path 370" d="M171.083,53.062a1.662,1.662,0,0,0,.052-.414.534.534,0,0,0-.207-.414.6.6,0,0,0-.517-.207c-.568,0-1.137.414-1.757,1.189a3.923,3.923,0,0,0-.982,2.533,1.671,1.671,0,0,0,.362,1.137,1.2,1.2,0,0,0,1.032.414,3.085,3.085,0,0,0,1.913-.672,7.425,7.425,0,0,0,1.344-1.292.538.538,0,0,1,.414-.258c.1,0,.155,0,.207.052a.47.47,0,0,1,.207.414.558.558,0,0,1-.155.362,17.463,17.463,0,0,1-1.551,1.5,4.055,4.055,0,0,1-2.429.827,1.972,1.972,0,0,1-1.654-.672,2.957,2.957,0,0,1-.568-1.861,5.092,5.092,0,0,1,1.137-3.051,3.2,3.2,0,0,1,2.429-1.551,1.7,1.7,0,0,1,1.137.414,1.3,1.3,0,0,1,.465,1.034q0,.775-.465.775C171.187,53.371,171.083,53.269,171.083,53.062Z" transform="translate(-132.106 -45.67)"/>
      <path id="Path_371" data-name="Path 371" d="M179.561,51.273a.5.5,0,0,1,.207-.465.655.655,0,0,1,.465-.207c.414,0,.62.258.672.724.155.052.362.1.568.155a2.2,2.2,0,0,0,.568.1.748.748,0,0,1,.362.1.57.57,0,0,1,.258.517,8.345,8.345,0,0,1-.879,2.223c-.258.517-.517,1.085-.827,1.6-.1.207-.155.362-.207.465a.656.656,0,0,0-.052.31c0,.1.052.155.207.155a3.2,3.2,0,0,0,1.137-.724,10.267,10.267,0,0,0,1.292-1.241.447.447,0,0,1,.31-.155.558.558,0,0,1,.362.155.447.447,0,0,1,.155.31c0,.1-.052.155-.1.258a8.093,8.093,0,0,1-1.5,1.4,3.375,3.375,0,0,1-1.757.93c-.672,0-.982-.362-.982-1.034a1.939,1.939,0,0,1,.052-.568,3.564,3.564,0,0,1,.207-.517c.362-.672.724-1.4,1.034-2.068a6.317,6.317,0,0,0,.568-1.292,4.372,4.372,0,0,1-1.189-.31,11.882,11.882,0,0,1-1.241,2.016c-.465.62-.879,1.086-1.241,1.5a.285.285,0,0,1-.258.1.369.369,0,0,1-.31-.155.469.469,0,0,1-.155-.362.313.313,0,0,1,.155-.31,13.1,13.1,0,0,0,1.137-1.292,9.446,9.446,0,0,0,1.241-1.809A.718.718,0,0,1,179.561,51.273Z" transform="translate(-137.173 -45.432)"/>
      <path id="Path_372" data-name="Path 372" d="M189.779,55.937a2.312,2.312,0,0,0,.258,1.137.877.877,0,0,0,.827.465,3.3,3.3,0,0,0,2.016-.776,15.122,15.122,0,0,0,1.344-1.344.47.47,0,0,1,.414-.207.284.284,0,0,1,.258.155.436.436,0,0,1,.1.362.311.311,0,0,1-.052.207,1.13,1.13,0,0,0-.155.258,9.1,9.1,0,0,1-1.964,1.7,3.918,3.918,0,0,1-1.964.568,1.7,1.7,0,0,1-1.447-.672,3.006,3.006,0,0,1-.517-1.913,4.94,4.94,0,0,1,1.034-3.051,2.833,2.833,0,0,1,2.171-1.344,1.052,1.052,0,0,1,.776.31,1.091,1.091,0,0,1,.31.827,2.328,2.328,0,0,1-1.137,1.861,15.678,15.678,0,0,1-2.171,1.241v.207Zm2.482-3.308c0-.155-.1-.258-.31-.258a1.636,1.636,0,0,0-.982.517,4.5,4.5,0,0,0-1.034,1.654,7.205,7.205,0,0,0,1.551-.879c.516-.362.774-.672.774-1.035Z" transform="translate(-142.789 -45.857)"/>
      <path id="Path_373" data-name="Path 373" d="M200.543,58.135a1.207,1.207,0,0,1-1.085-.465,2.505,2.505,0,0,1-.362-1.4,5.372,5.372,0,0,1,1.344-3.567,5.9,5.9,0,0,1,4.7-1.913.508.508,0,0,1,.414.155.447.447,0,0,1,.155.31.368.368,0,0,1-.155.31c-.1.1-.258.1-.465.1a4.865,4.865,0,0,0-4.135,1.861,4.456,4.456,0,0,0-.982,2.74c0,.62.207.879.672.879.517,0,1.137-.517,1.861-1.5a17.1,17.1,0,0,0,1.5-2.429,2.422,2.422,0,0,1,.31-.517.437.437,0,0,1,.31-.1c.258,0,.362.155.362.414a.558.558,0,0,1-.1.362,1.836,1.836,0,0,1-.207.466c-.258.517-.517.982-.724,1.344a4.2,4.2,0,0,0-.568,1.5q0,.31.155.31a2.659,2.659,0,0,0,1.241-.724,11.985,11.985,0,0,0,1.4-1.292.638.638,0,0,1,.414-.207.284.284,0,0,1,.31.207.389.389,0,0,1,.052.258.618.618,0,0,1-.207.414A10.113,10.113,0,0,1,205.2,57.1a3.405,3.405,0,0,1-1.913.775.83.83,0,0,1-.568-.258.983.983,0,0,1-.258-.672,4.376,4.376,0,0,1-.982.724A.991.991,0,0,1,200.543,58.135Z" transform="translate(-147.712 -45.523)"/>
      <path id="Path_374" data-name="Path 374" d="M213.575,51.748c-.1.1-.155.1-.31.1a.368.368,0,0,1-.31-.155.447.447,0,0,1-.155-.31.368.368,0,0,1,.155-.31,12.13,12.13,0,0,0,1.137-1.344,13.864,13.864,0,0,0,1.085-1.913l.674-1.5a5.111,5.111,0,0,1-.776-.052c-.31,0-.568-.052-.672-.052-.258,0-.362-.155-.362-.414a.53.53,0,0,1,.517-.517,6.538,6.538,0,0,1,.827.052c.414,0,.776.052.982.052.207-.465.362-.879.517-1.189.207-.465.362-.775.465-.982.155-.31.362-.517.517-.517.31,0,.465.1.465.362,0,.052-.052.207-.1.414a3.989,3.989,0,0,1-.31.775c-.052.155-.258.465-.517,1.034a2.121,2.121,0,0,0,.568-.052c.517-.052.775-.1.775-.1a.53.53,0,0,1,.517.517c0,.258-.1.414-.362.414-.258.052-.568.052-.93.1a7.651,7.651,0,0,1-1.034.052,35.154,35.154,0,0,0-2.171,5.169,3.476,3.476,0,0,0-.155.93.685.685,0,0,0,.775.775,3.652,3.652,0,0,0,1.5-.879,10.151,10.151,0,0,0,1.241-1.137.447.447,0,0,1,.31-.155.735.735,0,0,1,.31.1.368.368,0,0,1,.155.31.735.735,0,0,1-.1.31,8.985,8.985,0,0,1-1.6,1.5,3.338,3.338,0,0,1-2.016.879,1.433,1.433,0,0,1-1.137-.362,1.456,1.456,0,0,1-.362-1.086,2.318,2.318,0,0,1,.052-.568c.052-.207.1-.414.155-.672Z" transform="translate(-154.335 -41.616)"/>
      <path id="Path_375" data-name="Path 375" d="M223.055,53.157A.284.284,0,0,1,222.8,53a.38.38,0,0,1-.1-.31.47.47,0,0,1,.207-.414,4.082,4.082,0,0,0,1.086-1.447c.31-.517.62-1.085.93-1.6q.31-.465.62-.465a.447.447,0,0,1,.31.155.38.38,0,0,1,.1.31,1.19,1.19,0,0,1-.155.465c-.362.724-.62,1.292-.827,1.757-.31.672-.517,1.241-.724,1.7a7.1,7.1,0,0,0-.258.93c0,.155.052.258.207.258.207,0,.568-.258,1.189-.724a11.981,11.981,0,0,0,1.4-1.292.389.389,0,0,1,.62,0,.469.469,0,0,1,.155.362.735.735,0,0,1-.1.31,10.849,10.849,0,0,1-1.4,1.344,3.372,3.372,0,0,1-1.913.93c-.62,0-.93-.31-.93-.982a3.553,3.553,0,0,1,.258-1.241Zm3.205-6.2c-.414,0-.568-.207-.568-.672a1.039,1.039,0,0,1,.207-.672.628.628,0,0,1,.517-.31.894.894,0,0,1,.62.31.91.91,0,0,1,.31.672c0,.155-.1.31-.362.465a1.292,1.292,0,0,1-.724.207Z" transform="translate(-159.11 -42.871)"/>
      <path id="Path_376" data-name="Path 376" d="M230.871,56.336c-.052.052-.1.052-.155.1-.052,0-.1.052-.155.052a.353.353,0,0,1-.362-.362.618.618,0,0,1,.207-.414,5.027,5.027,0,0,0,.879-1.189,6.71,6.71,0,0,0,.776-1.447,2.873,2.873,0,0,1,.207-.414c.1-.258.258-.362.362-.362a.748.748,0,0,1,.362.1.313.313,0,0,1,.155.31.825.825,0,0,1-.155.414,2.682,2.682,0,0,0-.155.258,8.536,8.536,0,0,0-.568,1.861,10.812,10.812,0,0,0-.207,1.757c0,.568.052.879.207.879.258,0,.724-.362,1.344-1.085a17.256,17.256,0,0,0,1.912-2.688,6.751,6.751,0,0,1,.362-1.4c.155-.362.362-.517.62-.517.362,0,.517.207.517.568a1.555,1.555,0,0,1-.207.724,8.367,8.367,0,0,1-.517.93l-.155.465a1.759,1.759,0,0,0-.052.517.893.893,0,0,0,.258.672.824.824,0,0,0,.62.207.834.834,0,0,0,.465-.155,1.058,1.058,0,0,0,.414-.414c.1-.1.207-.207.31-.207a.4.4,0,0,1,.258.1.554.554,0,0,1,.1.31.735.735,0,0,1-.1.31,2.1,2.1,0,0,1-.724.62,2.435,2.435,0,0,1-.879.207,1.283,1.283,0,0,1-1.034-.414,1.456,1.456,0,0,1-.362-1.086,16.485,16.485,0,0,1-1.913,2.223c-.672.62-1.137.93-1.5.93-.207,0-.362-.207-.517-.568a4.076,4.076,0,0,1-.207-1.447,5.01,5.01,0,0,1,.155-1.189A3.149,3.149,0,0,1,230.871,56.336Z" transform="translate(-162.739 -46.204)"/>
      <path id="Path_377" data-name="Path 377" d="M245.579,55.937a2.312,2.312,0,0,0,.258,1.137.877.877,0,0,0,.827.465,3.3,3.3,0,0,0,2.016-.776,15.111,15.111,0,0,0,1.344-1.344.47.47,0,0,1,.414-.207.284.284,0,0,1,.258.155.436.436,0,0,1,.1.362.311.311,0,0,1-.052.207,1.129,1.129,0,0,0-.155.258,9.1,9.1,0,0,1-1.964,1.7,3.918,3.918,0,0,1-1.964.568,1.7,1.7,0,0,1-1.447-.672,3.006,3.006,0,0,1-.517-1.913,4.94,4.94,0,0,1,1.034-3.051,2.832,2.832,0,0,1,2.171-1.344,1.052,1.052,0,0,1,.775.31,1.091,1.091,0,0,1,.31.827,2.328,2.328,0,0,1-1.137,1.861,15.68,15.68,0,0,1-2.171,1.241v.207Zm2.482-3.308c0-.155-.1-.258-.31-.258a1.636,1.636,0,0,0-.982.517,4.5,4.5,0,0,0-1.034,1.654,7.206,7.206,0,0,0,1.551-.879c.516-.362.774-.672.774-1.035Z" transform="translate(-169.745 -45.857)"/>
      <path id="Path_378" data-name="Path 378" d="M260.588,55.135a.447.447,0,0,1,.31-.155.368.368,0,0,1,.31.155.469.469,0,0,1,.155.362.735.735,0,0,1-.1.31,7.606,7.606,0,0,1-1.809,1.6,4.982,4.982,0,0,1-2.74.827,3.569,3.569,0,0,1-1.292-.207l-.31-.155a.554.554,0,0,1-.1-.31c0-.362.155-.517.517-.517.155,0,.414.052.827.1s.724.1.93.1a1.094,1.094,0,0,0,.724-.207,2.909,2.909,0,0,0,.1-.517,4.455,4.455,0,0,0,.052-.879,4.627,4.627,0,0,0-.1-1.189,10.59,10.59,0,0,0-.258-1.241c-.207.31-.568.672-.982,1.189q-.775.93-1.241,1.4a.467.467,0,0,1-.776-.31.735.735,0,0,1,.1-.31c.465-.517.93-1.085,1.4-1.6a12.31,12.31,0,0,0,1.034-1.292c-.052-.1-.155-.207-.207-.31a.957.957,0,0,1-.1-.362c0-.414.258-.62.724-.62a.722.722,0,0,1,.465.155.686.686,0,0,1,.155.517.656.656,0,0,1-.052.31.873.873,0,0,1-.1.258,8.233,8.233,0,0,1,.517,1.7,10.9,10.9,0,0,1,.207,1.7,5.027,5.027,0,0,1-.052.93,5.646,5.646,0,0,0,.879-.672,3.886,3.886,0,0,0,.827-.773Z" transform="translate(-174.623 -45.623)"/>
    </g>
    <g id="Group_234" data-name="Group 234" transform="translate(70.976 40.475)">
      <g id="Group_233" data-name="Group 233">
        <path id="Path_379" data-name="Path 379" d="M128.1,78.18V75.492h.414a1.008,1.008,0,0,1,.414.052c.1.052.207.052.258.155a.439.439,0,0,1,.155.258.655.655,0,0,1,.052.31.664.664,0,0,1-.207.517.927.927,0,0,1,.362.258.557.557,0,0,1,.1.414.6.6,0,0,1-.207.517,1.081,1.081,0,0,1-.31.207,1.147,1.147,0,0,1-.466.052H128.1Zm.414-1.5h.1a.365.365,0,0,0,.414-.414.735.735,0,0,0-.1-.31c-.052-.1-.155-.1-.31-.1h-.155v.827Zm0,1.137h.258a.8.8,0,0,0,.414-.1.368.368,0,0,0,.155-.31.447.447,0,0,0-.155-.31c-.1-.1-.258-.1-.465-.1h-.207v.827Z" transform="translate(-128.1 -75.285)"/>
        <path id="Path_380" data-name="Path 380" d="M133.079,77.032l.827,1.137h-.517l-.775-1.086h0v1.086H132.2V75.481h.465a1.073,1.073,0,0,1,.776.207.83.83,0,0,1,.258.568.873.873,0,0,1-.155.517.7.7,0,0,1-.465.259Zm-.465-.31h.1c.362,0,.568-.155.568-.465,0-.258-.207-.414-.568-.414h-.1Z" transform="translate(-130.081 -75.274)"/>
        <path id="Path_381" data-name="Path 381" d="M137.661,77.471h-1.137l-.31.672H135.8l1.344-2.843,1.292,2.843h-.465Zm-.155-.414-.414-.93-.414.93Z" transform="translate(-131.82 -75.197)"/>
        <path id="Path_382" data-name="Path 382" d="M141.5,77.995V75.1l1.964,2.068V75.307h.414v2.844l-1.964-2.068V78Z" transform="translate(-134.573 -75.1)"/>
        <path id="Path_383" data-name="Path 383" d="M147.3,78.188V75.5h.568a1.928,1.928,0,0,1,.62.1,2.1,2.1,0,0,1,.465.258,1.324,1.324,0,0,1,.414.982,1.244,1.244,0,0,1-.414.982,2.1,2.1,0,0,1-.465.258,2.131,2.131,0,0,1-.62.052H147.3Zm.414-.362h.207a1.283,1.283,0,0,0,.465-.052,1.081,1.081,0,0,0,.31-.207,1,1,0,0,0,0-1.447,1.163,1.163,0,0,0-.776-.258h-.207Z" transform="translate(-137.375 -75.293)"/>
        <path id="Path_384" data-name="Path 384" d="M152.714,75.5v2.688H152.3V75.5Z" transform="translate(-139.79 -75.293)"/>
        <path id="Path_385" data-name="Path 385" d="M154.3,77.995V75.1l1.964,2.068V75.307h.414v2.844l-1.964-2.068V78Z" transform="translate(-140.757 -75.1)"/>
        <path id="Path_386" data-name="Path 386" d="M161.4,76.744h1.137v.1a1.594,1.594,0,0,1-.052.517.915.915,0,0,1-.258.414,1.294,1.294,0,0,1-.93.414,1.412,1.412,0,0,1-1.4-1.4,1.323,1.323,0,0,1,.414-.982,1.412,1.412,0,0,1,.982-.414,1.858,1.858,0,0,1,.568.1,1.815,1.815,0,0,1,.517.414l-.31.258a.993.993,0,0,0-.827-.465,1.06,1.06,0,0,0-1.034,1.034.867.867,0,0,0,.31.724,1.089,1.089,0,0,0,.672.258.664.664,0,0,0,.517-.207.715.715,0,0,0,.258-.465h-.672v-.31Z" transform="translate(-143.459 -75.245)"/>
        <path id="Path_387" data-name="Path 387" d="M168.514,77.091v1.086H168.1V75.489h.465a1.44,1.44,0,0,1,.517.052l.31.155a.83.83,0,0,1,.258.568.667.667,0,0,1-.258.568.953.953,0,0,1-.672.207h-.207Zm0-.362h.155c.362,0,.568-.155.568-.414s-.207-.414-.568-.414h-.155Z" transform="translate(-147.423 -75.282)"/>
        <path id="Path_388" data-name="Path 388" d="M172.73,77.032l.827,1.137h-.517l-.775-1.086h-.052v1.086H171.8V75.481h.465a1.073,1.073,0,0,1,.775.207.83.83,0,0,1,.258.568.874.874,0,0,1-.155.517A.71.71,0,0,1,172.73,77.032Zm-.517-.31h.1c.362,0,.568-.155.568-.465,0-.258-.207-.414-.568-.414h-.155v.879Z" transform="translate(-149.211 -75.274)"/>
        <path id="Path_389" data-name="Path 389" d="M175.7,76.8a1.4,1.4,0,1,1,2.792,0,1.323,1.323,0,0,1-.414.982,1.443,1.443,0,0,1-1.034.414,1.246,1.246,0,0,1-.93-.362A1.443,1.443,0,0,1,175.7,76.8Zm.414,0a.867.867,0,0,0,.31.724.91.91,0,0,0,.672.31,1.02,1.02,0,0,0,.724-.31,1.034,1.034,0,0,0-.724-1.757,1.02,1.02,0,0,0-.724.31A1.235,1.235,0,0,0,176.113,76.8Z" transform="translate(-151.094 -75.245)"/>
        <path id="Path_390" data-name="Path 390" d="M182.1,78.188V75.5h.568a1.928,1.928,0,0,1,.62.1,2.093,2.093,0,0,1,.465.258,1.323,1.323,0,0,1,.414.982,1.244,1.244,0,0,1-.414.982,2.1,2.1,0,0,1-.465.258,2.13,2.13,0,0,1-.62.052H182.1Zm.414-.362h.207a1.283,1.283,0,0,0,.465-.052,1.081,1.081,0,0,0,.31-.207,1,1,0,0,0,0-1.447,1.163,1.163,0,0,0-.775-.258h-.207Z" transform="translate(-154.186 -75.293)"/>
        <path id="Path_391" data-name="Path 391" d="M187.515,75.5v1.6a1.3,1.3,0,0,0,.1.517.548.548,0,0,0,.93,0,1.111,1.111,0,0,0,.1-.517V75.5h.414v1.757a1.121,1.121,0,0,1-.258.724,1,1,0,0,1-1.447,0,1.12,1.12,0,0,1-.258-.724V75.5Z" transform="translate(-156.603 -75.293)"/>
        <path id="Path_392" data-name="Path 392" d="M194.117,75.606v.465a1.117,1.117,0,0,0-.724-.31,1.023,1.023,0,0,0-.724,1.757.939.939,0,0,0,.724.31.767.767,0,0,0,.362-.052c.052,0,.1-.052.155-.1a.714.714,0,0,1,.207-.155v.517a1.292,1.292,0,0,1-.724.207,1.412,1.412,0,0,1-1.4-1.4,1.246,1.246,0,0,1,.362-.93,1.374,1.374,0,0,1,1.086-.517A1.137,1.137,0,0,1,194.117,75.606Z" transform="translate(-158.966 -75.244)"/>
        <path id="Path_393" data-name="Path 393" d="M197.534,75.962v2.326h-.414V75.962h-.62V75.6h1.654v.362Z" transform="translate(-161.142 -75.342)"/>
        <path id="Path_394" data-name="Path 394" d="M200.814,75.5v2.688H200.4V75.5Z" transform="translate(-163.027 -75.293)"/>
        <path id="Path_395" data-name="Path 395" d="M202.2,76.8a1.4,1.4,0,1,1,2.792,0,1.324,1.324,0,0,1-.414.982,1.443,1.443,0,0,1-1.034.414,1.246,1.246,0,0,1-.93-.362A1.443,1.443,0,0,1,202.2,76.8Zm.414,0a.867.867,0,0,0,.31.724.91.91,0,0,0,.672.31,1.02,1.02,0,0,0,.724-.31,1.034,1.034,0,0,0-.724-1.757,1.02,1.02,0,0,0-.724.31A.968.968,0,0,0,202.613,76.8Z" transform="translate(-163.896 -75.245)"/>
        <path id="Path_396" data-name="Path 396" d="M208.6,77.995V75.1l1.964,2.068V75.307h.414v2.844l-1.964-2.068V78Z" transform="translate(-166.988 -75.1)"/>
        <path id="Path_397" data-name="Path 397" d="M217.8,76.744h1.137v.1a1.594,1.594,0,0,1-.052.517.915.915,0,0,1-.258.414,1.294,1.294,0,0,1-.93.414,1.412,1.412,0,0,1-1.4-1.4,1.323,1.323,0,0,1,.414-.982,1.412,1.412,0,0,1,.982-.414,1.858,1.858,0,0,1,.568.1,1.815,1.815,0,0,1,.517.414l-.31.258a.993.993,0,0,0-.827-.465,1.06,1.06,0,0,0-1.034,1.034.867.867,0,0,0,.31.724,1.089,1.089,0,0,0,.672.258.664.664,0,0,0,.517-.207.714.714,0,0,0,.258-.465h-.672v-.31Z" transform="translate(-170.705 -75.245)"/>
        <path id="Path_398" data-name="Path 398" d="M223.23,77.032l.827,1.137h-.517l-.776-1.086h-.052v1.086H222.3V75.481h.465a1.073,1.073,0,0,1,.775.207.83.83,0,0,1,.258.568.873.873,0,0,1-.155.517A.582.582,0,0,1,223.23,77.032Zm-.517-.31h.1c.362,0,.568-.155.568-.465,0-.258-.207-.414-.568-.414h-.155v.879Z" transform="translate(-173.606 -75.274)"/>
        <path id="Path_399" data-name="Path 399" d="M226.2,76.8a1.4,1.4,0,1,1,2.792,0,1.324,1.324,0,0,1-.414.982,1.443,1.443,0,0,1-1.034.414,1.246,1.246,0,0,1-.93-.362A1.443,1.443,0,0,1,226.2,76.8Zm.414,0a.867.867,0,0,0,.31.724.91.91,0,0,0,.672.31,1.02,1.02,0,0,0,.724-.31,1.034,1.034,0,0,0-.724-1.757,1.021,1.021,0,0,0-.724.31A1.235,1.235,0,0,0,226.613,76.8Z" transform="translate(-175.49 -75.245)"/>
        <path id="Path_400" data-name="Path 400" d="M233.115,75.5v1.6a1.3,1.3,0,0,0,.1.517.548.548,0,0,0,.93,0,1.112,1.112,0,0,0,.1-.517V75.5h.414v1.757a1.121,1.121,0,0,1-.258.724,1,1,0,0,1-1.447,0,1.121,1.121,0,0,1-.258-.724V75.5Z" transform="translate(-178.631 -75.293)"/>
        <path id="Path_401" data-name="Path 401" d="M238.114,77.091v1.086H237.7V75.489h.465a1.44,1.44,0,0,1,.517.052l.31.155a.83.83,0,0,1,.258.568.667.667,0,0,1-.258.568.953.953,0,0,1-.672.207h-.207Zm0-.362h.155c.362,0,.568-.155.568-.414s-.207-.414-.568-.414h-.155Z" transform="translate(-181.045 -75.282)"/>
      </g>
    </g>
    <g id="Group_236" data-name="Group 236" transform="translate(0.03 -0.009)">
      <path id="Path_402" data-name="Path 402" d="M28.17,24.8s-2.895,1.189-3.67,1.4c0,0,.93.982,3.722.155,2.74-.776,2.533-1.085,2.533-1.085Z" transform="translate(-11.852 -11.518)" fill="#e4007f"/>
      <path id="Path_403" data-name="Path 403" d="M25.836,18.267s-.93-.518-1.085-1.086l.465-.93a1.451,1.451,0,0,0-.827-.93,1.424,1.424,0,0,0-1.344-.052L21.6,17.337s-.155,2.273,3.051,3.308l.465.207,1.292-.775-1.292-1.034Z" transform="translate(-10.449 -6.999)" fill="#fff100"/>
      <path id="Path_404" data-name="Path 404" d="M17,24.773l-1.861-.362.465-2.326a2.09,2.09,0,0,0-2.068-.568,1.693,1.693,0,0,0-1.4,1.5s-1.086,3.256,1.034,3.826a6.142,6.142,0,0,0,3.153.31A5.687,5.687,0,0,0,17,24.773Z" transform="translate(-5.747 -9.914)" fill="#e4007f"/>
      <path id="Path_405" data-name="Path 405" d="M10.08,31.45a3.158,3.158,0,0,0-2.843-.672c-1.5.569-1.707,1.809-1.5,3.1.207,1.344.31,3.619,2.791,3.98a24.507,24.507,0,0,0,6.1-.258l1.446-1.913a8.082,8.082,0,0,1-2.688.517l-.155-2.636-3.051.258Z" transform="translate(-2.756 -14.16)" fill="#00a1e9"/>
      <path id="Path_406" data-name="Path 406" d="M10.01,44.81,4.429,48.067,3.6,46.93a2,2,0,0,0-2.273.568,2.115,2.115,0,0,0-.207,2.482c.155.362,2.016,3.153,3.515,3.257s4.6-2.068,5.425-3.207a5.964,5.964,0,0,0,.982-1.757L8.356,47.24l3.515-2.74Z" transform="translate(-0.412 -20.529)" fill="#fff100"/>
      <path id="Path_407" data-name="Path 407" d="M12.664,57.237s-3.619,7.858-1.292,10.079c1.189,1.137,5.221,1.344,5.686.1a2.448,2.448,0,0,0-.62-2.843l-.724-.258.207-3.256-2.482-.982L14.473,56.1Z" transform="translate(-5.133 -25.437)" fill="#e4007f"/>
      <path id="Path_408" data-name="Path 408" d="M24.1,57.093s-1.085,6.048-.155,8.839,1.964,2.74,3.1,2.429c1.137-.258,4.342-1.189,4.446-2.533s-1.551-2.223-1.551-2.223l-.465.1.155-5.066a26.622,26.622,0,0,1-.517-6.048,59.471,59.471,0,0,1,1.5-6,43.783,43.783,0,0,0-4.549,6.565C24.827,55.7,24.1,57.093,24.1,57.093Z" transform="translate(-11.403 -20.848)" fill="#00a1e9"/>
      <path id="Path_409" data-name="Path 409" d="M39.9,67.17s.414,8.891,3.515,9.615c3.051.724,5.789-1.6,5.789-1.6s-.258-2.533-1.034-2.636a2.134,2.134,0,0,0-1.292.207,33.023,33.023,0,0,1-1.809-6.2c-.155-1.964-.207-6.048-.207-6.048l-3.1.775.93,5.479Z" transform="translate(-19.291 -27.563)" fill="#fff100"/>
      <path id="Path_410" data-name="Path 410" d="M53.2,75.542a5.026,5.026,0,0,0,4.549.879c2.429-.879,3.929-1.964,3.774-3s-1.757-1.551-1.757-1.551l-2.119,1.292a21.26,21.26,0,0,1-1.654-2.585,12.231,12.231,0,0,1-.62-1.964l-.776.258-.413-3.566-2.273.672A16.512,16.512,0,0,1,50.1,60.5l-1.292.155s.568,9.46,2.326,11.941c0,0,1.861-.1,2.119,1.189C53.559,75.077,53.2,75.542,53.2,75.542Z" transform="translate(-23.594 -27.563)" fill="#e4007f"/>
      <path id="Path_411" data-name="Path 411" d="M61.6,75.189s2.068,2.791,3.619,3.36c0,0,1.5-.414,1.964.362.465.827.465.62.465.62a6.264,6.264,0,0,0,2.325-1.344c.93-.879,2.273-1.654,1.6-2.533l-.672-.827-1.809,1.4s-2.378.052-2.791-1.344l-.724.052L64.912,74,61.5,75.137" transform="translate(-29.726 -34.084)" fill="#00a1e9"/>
      <path id="Path_412" data-name="Path 412" d="M50.739,8.9a22.257,22.257,0,0,0-2.378,2.016A14.057,14.057,0,0,0,46.5,13.294l3.257-1.809Z" transform="translate(-22.479 -4.295)" fill="#fff100"/>
      <path id="Path_413" data-name="Path 413" d="M56.991,5.7a18.706,18.706,0,0,0-3.308,2.636,7.5,7.5,0,0,0-1.085,1.6,31.453,31.453,0,0,0-.1,5.686l4.342-4.755Z" transform="translate(-25.319 -2.749)" fill="#e4007f"/>
      <path id="Path_414" data-name="Path 414" d="M63.229,7.4,64,13.292s-1.964,4.652-2.016,4.962c0,0-.517-2.636-.776-4.29-.258-1.6-.414-2.273-.414-2.273a17.364,17.364,0,0,0,1.034-1.964,19.715,19.715,0,0,1,1.4-2.327Z" transform="translate(-29.387 -3.57)" fill="#00a1e9"/>
      <g id="Group_235" data-name="Group 235" transform="translate(0 0)">
        <path id="Path_415" data-name="Path 415" d="M66.807,36.654a7.806,7.806,0,0,0-1.344-1.034,2.732,2.732,0,0,0-1.6-.62c-.568.052-.568.1-.672.31-.1.155-.207.672,0,.672a2.008,2.008,0,0,0,.568,0s-.1,1.4.362,1.757a1.881,1.881,0,0,0,1.809.052c.207-.155.517-.414.672-.258.155.1.258.258.465.207s.414-.155.362-.31A9.7,9.7,0,0,0,66.807,36.654Zm-1.241.672a.934.934,0,0,1-.982.052c-.414-.207-.362-1.241-.31-1.4s.258,0,.31.1c.1.1,0,.1,0,.31,0,.155.052.568.362.62a.761.761,0,0,0,.672-.312c.052-.1.258,0,.258.155.1.1-.051.311-.31.466Z" transform="translate(-30.483 -16.241)"/>
        <path id="Path_416" data-name="Path 416" d="M46.691,27.05c-.414-.321-2.482-1.818-4.187-3.315a67.71,67.71,0,0,1-6.772-6.523c-.207-1.925-.827-7.806-1.189-11.281C34.13,1.921,33.923.1,33.665,0S31.08,1.76,28.754,3.739c-2.171,1.818-6.721,6.576-7.5,7.432h-.207a7.886,7.886,0,0,1-2.273-.321,10.832,10.832,0,0,1-3.257-1.711h-.1c-.052,0-.052.054-.052.107a4.871,4.871,0,0,1-.207,1.6,1.1,1.1,0,0,1-.517-.642l.31-.321a1.047,1.047,0,0,0,.052-1.123,1.8,1.8,0,0,0-1.6-1.176,1.654,1.654,0,0,0-.879.214h-.052a13.157,13.157,0,0,0-1.654,2.459,2.03,2.03,0,0,0,.258,1.39,5.26,5.26,0,0,0,2.791,2.192,9.06,9.06,0,0,1-2.533.374A1.14,1.14,0,0,1,10.973,14c-.052-.054-.052-.054-.1,0-.052,0-.052.054-.052.107v.16a5.434,5.434,0,0,1-.93-.054c.155-.535.362-1.069.465-1.337a1.122,1.122,0,0,0-.1-1.069c-.207-.321-.724-.748-1.913-.7a2.008,2.008,0,0,0-2.171,1.818v.054a11.451,11.451,0,0,0-.312,2.674,1.607,1.607,0,0,0,.1.481,2.852,2.852,0,0,0-.672-.054,2.928,2.928,0,0,0-1.085.16,2.574,2.574,0,0,0-1.6,2.834,1.215,1.215,0,0,0,.052.428c.1,1.711.258,4.01,2.171,4.7a6.8,6.8,0,0,0,2.326.321,11.3,11.3,0,0,0,1.344-.054c-1.137.7-3.257,1.925-4.29,2.459a3.361,3.361,0,0,0-.414-.588,1.834,1.834,0,0,0-1.447-.588,2.177,2.177,0,0,0-1.653.7,3.045,3.045,0,0,0-.1,3.636c.052.107.155.214.207.321.827,1.176,2.119,2.941,3.463,3.1h.155a4.347,4.347,0,0,0,2.171-.8c-.775,1.765-2.016,5.025-1.6,7.913.258,1.871,2.068,2.139,3.153,2.3.155,0,.31.054.414.054a5.287,5.287,0,0,0,1.241.107h0a3.439,3.439,0,0,0,1.757-.428c.052.642.1,1.337.207,1.978.414,2.406,1.241,3.529,2.585,3.529h.258c1.7-.16,4.755-1.5,5.428-2.3a2.772,2.772,0,0,0,.517-1.39,10.787,10.787,0,0,0,.724,2.3c.827,1.925,1.7,3.208,3.153,3.208a2.436,2.436,0,0,0,.62-.054,14.43,14.43,0,0,0,4.5-1.444,6.8,6.8,0,0,0,2.016,1.017,3.838,3.838,0,0,0,1.292.214h0a4.823,4.823,0,0,0,2.688-.962c1.034-.642,2.429-1.871,2.636-3.048a1.605,1.605,0,0,0,.724-.16,18.236,18.236,0,0,0,3.257-2.941,1.4,1.4,0,0,0,.1-1.5A1.562,1.562,0,0,0,41.005,40.1a.706.706,0,0,0-.465.16c-.31.267-.879.8-1.447,1.283h-.052a2.884,2.884,0,0,1-2.016-.855,7.244,7.244,0,0,1,1.241-.267c.982-.107,1.447-.16,1.447-.16.052,0,.052,0,.052-.054V40.1a11.264,11.264,0,0,1-1.4-2.834c.879-.428,2.119-.8,2.171-.855a.052.052,0,0,0,.052-.054v-.107a9.979,9.979,0,0,1-.62-.8,8.072,8.072,0,0,1,2.068.321,2.9,2.9,0,0,0,2.016.054c.258-.267.724-1.39.93-1.337.155.054.155.214.414.214.207,0,.362-.107.31-.428a3.251,3.251,0,0,1,.258-1.871,12.056,12.056,0,0,0,.62-3.1,4.672,4.672,0,0,1,.31-1.176A.817.817,0,0,0,46.691,27.05ZM35.319,46.726a1.61,1.61,0,0,0-.62-1.069l1.7-1.017a.707.707,0,0,1,.724.267,1.4,1.4,0,0,1,.155,1.069c-.1.535-1.447,1.5-2.223,1.925a2.08,2.08,0,0,0,.259-1.175ZM30.3,46.138a2.3,2.3,0,0,0-1.447-1.871c-.052,0-.1-.054-.207-.054a2.209,2.209,0,0,0-.516.106c-1.757-2.727-2.171-9.357-2.273-11.335a1.544,1.544,0,0,1,.465-.054c.31,4.117,1.809,5.828,1.913,5.881l.052.054h.052a9.366,9.366,0,0,1,1.964-.909,9.365,9.365,0,0,0,.568,3.636c0,.054.052.054.1.054h.052a4.266,4.266,0,0,1,.517-.214,12.065,12.065,0,0,0,1.964,4.01c-.465.321-.775.535-.827.588-.052,0-.052.054-.052.107s.052.054.1.054a2.183,2.183,0,0,1,.982.16,1.034,1.034,0,0,1,.052,1.871,1.549,1.549,0,0,1-.568.107h0a7.912,7.912,0,0,1-2.791-.8,13.609,13.609,0,0,0-.107-1.389Zm-6.617.428c0,.054.052.054.1.054a1.958,1.958,0,0,1,1.086.428.744.744,0,0,1,.207.588.756.756,0,0,1-.775.642,1.415,1.415,0,0,1-1.086-.7c-.93-1.176-1.964-4.652-2.068-7.7.052,0,.155-.054.207-.054A14.281,14.281,0,0,1,24,39.507H24.2a.113.113,0,0,0,.1-.107v-.054a27.244,27.244,0,0,1-1.241-5.667,8.42,8.42,0,0,1,1.034-.321c.362-.107.724-.16,1.085-.267-.155,6.789,1.292,10.64,1.757,11.709-1.4.642-3,1.552-3.1,1.6-.155.107-.155.107-.155.161Zm9.563-3.582a4.7,4.7,0,0,0,1.7,1.337,1.079,1.079,0,0,0-.31.214,6.481,6.481,0,0,1-1.395-1.551Zm-6.927,4.17a1.226,1.226,0,0,0-.465-.855,12.813,12.813,0,0,1,2.378-.962c.31,0,.62.267.827.748a1.344,1.344,0,0,1-.1,1.39,7.271,7.271,0,0,1-2.947,1.069,2.038,2.038,0,0,0,.311-1.39ZM14.28,14.859c-.362,0-.672-.054-.982-.054a14.04,14.04,0,0,0,2.895-1.23A7.092,7.092,0,0,0,18.261,14a9.284,9.284,0,0,1-3.98.856Zm-.053-5.613a8.133,8.133,0,0,1-.879,1.017.989.989,0,0,0-1.034-.855.377.377,0,0,0-.258.054c.207-.214.465-.588.775-.962a.31.31,0,0,1,.31-.16,1.427,1.427,0,0,1,1.034.7.134.134,0,0,1,.052.213Zm-2.016,1.017c.258,0,.62.321.724,1.283,0,.054,0,.054.052.054h.1s.465-.428.982-.909a1.446,1.446,0,0,0,.827.7,2.124,2.124,0,0,1-.673.694l-.052.054v.054a5.55,5.55,0,0,0,1.087.908c.1.054.155.107.258.16-.155.054-.362.16-.62.267-.672-.214-2.482-.962-3-2.139a.94.94,0,0,1,0-.909.321.321,0,0,1,.31-.213ZM8.852,30.846a19.045,19.045,0,0,0-1.292,3.8V34.7l.052.054a10.588,10.588,0,0,1,2.895.642,24.908,24.908,0,0,0-.414,2.782A16.961,16.961,0,0,0,7.56,37.8a1.112,1.112,0,0,0-.465.054,1.077,1.077,0,0,0-.724.535v.107c0,.054.052.054.1.054h.207a1.093,1.093,0,0,1,.827.321.939.939,0,0,1,.1.855c-.1.535-.362.909-.672.909s-.62-.374-.827-1.23c-.258-1.5.879-5.881,1.809-7.806a6.432,6.432,0,0,0,.93-.75ZM11.8,38.759l-.207-.214H11.54s-.207-.054-.465-.107a17.729,17.729,0,0,1,.155-2.727c.362.16.672.321.982.428-.1.588-.31,1.551-.413,2.62ZM8.284,40.577a2.738,2.738,0,0,0,.052-1.818,14.216,14.216,0,0,1,2.482.428,1.388,1.388,0,0,1,.724,1.711,1.334,1.334,0,0,1-1.551,1.23,15.251,15.251,0,0,1-2.843-.642,1.534,1.534,0,0,0,1.136-.909Zm4.755-4.01a2.668,2.668,0,0,0,.258.16h.052a.052.052,0,0,0,.052-.054A51.983,51.983,0,0,1,18.622,25.98a24.129,24.129,0,0,0-1.189,4.063,20.256,20.256,0,0,0,.414,7.325,13.959,13.959,0,0,0-.207,5.025,25.426,25.426,0,0,0-4.239,1.23c-.052,0-.052.054-.052.107s0,.054.052.107c0,0,1.5.588,1.241,1.711-.1.428-.362.7-.672.7s-.775-.267-.93-1.069a23.387,23.387,0,0,1,0-8.607Zm2.843,8.769A1.368,1.368,0,0,0,15.21,44c.62-.16,2.585-.7,3.308-.8a.872.872,0,0,1,.879.535,1.343,1.343,0,0,1,0,1.39c-.517.909-3.412,1.5-4.394,1.711a2.346,2.346,0,0,0,.879-1.5ZM3.528,30.044a1.176,1.176,0,0,1,.982-.481,2.632,2.632,0,0,1,1.241.428H5.8a.113.113,0,0,0,.1-.107V29.83c-.1-.16-.62-1.123-1.137-2.032L9.99,24.323c.155,0,.31-.054.465-.054a20.821,20.821,0,0,1-3.722,2.512c-.052,0-.052.054-.052.107a.051.051,0,0,0,.052.054,16.583,16.583,0,0,1,3.306,1.017c-.775,1.017-2.636,3.1-4.084,3.689a4.811,4.811,0,0,1-1.551.428,1.1,1.1,0,0,1-1.137-.909,1.623,1.623,0,0,1,.259-1.123ZM6.785,14.325a4.31,4.31,0,0,1,.31-1.711,1.259,1.259,0,0,1,1.241-.748,1.71,1.71,0,0,1,1.241.48.2.2,0,0,1,.052.16c-.207.428-.568,1.444-.672,1.765a1.947,1.947,0,0,0-1.034-.321,1.792,1.792,0,0,0-1.137.374Zm.362,1.39c.052-.321.465-.535.775-.642h.155a1.5,1.5,0,0,1,1.189.7c0,.054.052.054.1.054h0c.052,0,.052-.054.1-.054,0,0,.1-.267.207-.642.207,0,.517.054.879.054h.31a3.554,3.554,0,0,1-.775,2.032H9.835a3.352,3.352,0,0,1-2.016-.535C7.3,16.357,7.1,15.982,7.147,15.715ZM6.785,17.48c.052.481-.052,1.658-.052,2.139a2.293,2.293,0,0,0-1.292-.267,2.236,2.236,0,0,0-1.7,1.017,5.809,5.809,0,0,1-.207-1.818,1.586,1.586,0,0,1,1.187-1.658,1.7,1.7,0,0,1,.517-.054c.776,0,1.552.213,1.552.641ZM4.407,21.222A1.279,1.279,0,0,1,5.6,20.313a2.1,2.1,0,0,1,1.809.962c0,.054.052.054.1.054s.052-.054.052-.107a6.953,6.953,0,0,0,.052-.855c.362-.054,1.447-.16,2.378-.321a4.467,4.467,0,0,1,.05.854c0,1.123-.052,1.711-.052,1.711v.054l.052.054a7,7,0,0,0,2.74-.7,15.512,15.512,0,0,1-1.292,1.23,31.123,31.123,0,0,1-3.36.214,5.839,5.839,0,0,1-3.153-.588,1.8,1.8,0,0,1-.567-1.657Zm8.374-2.887a20.692,20.692,0,0,1-2.326.214,4.963,4.963,0,0,1-.879-.054c-.052,0-.1,0-.1.054v.108a1.826,1.826,0,0,1,.31.535,5.759,5.759,0,0,1-1.034.054,7.464,7.464,0,0,1-1.086-.11,13.489,13.489,0,0,0,.052-1.39,7,7,0,0,0,2.119.267h0c.517,0,1.085-.054,1.7-.107a7.394,7.394,0,0,0,1.137.054,9.546,9.546,0,0,0,2.273-.267,7.533,7.533,0,0,1-2.168.643ZM4.2,28.706H4.045a1.918,1.918,0,0,0-.93.321,2.3,2.3,0,0,0-.879,1.658,7.752,7.752,0,0,1-1.137-1.6,1.884,1.884,0,0,1,.1-1.87,1.417,1.417,0,0,1,1.241-.589,1.87,1.87,0,0,1,.62.107A9.044,9.044,0,0,1,4.2,28.706ZM19.088,42.288h-.052a8.34,8.34,0,0,1-.517-2.459,4.574,4.574,0,0,1,.207.748l.052.054h.1a8.5,8.5,0,0,1,1.292-.481,23.983,23.983,0,0,0,.258,2.834,1.745,1.745,0,0,0-1.344-.694Zm18.4.855c.052.054.052.054.1,0a1.836,1.836,0,0,1,.879-.267.624.624,0,0,1,.62.428.936.936,0,0,1,0,.535,2.111,2.111,0,0,1-.93.855,1.765,1.765,0,0,0-1.6-1.069,1.784,1.784,0,0,0-.517.107,7.175,7.175,0,0,1-3.463-2.782c.827-.321,1.757-.642,2.482-.855a10.718,10.718,0,0,0,.568,1.069l.052.054h.052a4.444,4.444,0,0,1,.672-.321c.724,1.23,1.5,1.444,1.861,1.444h0c-.465.428-.776.7-.776.7C37.438,43.036,37.438,43.09,37.49,43.143Zm2.688-.588a.781.781,0,0,0-.465-.374,5.271,5.271,0,0,1,1.085-.962h.1a.465.465,0,0,1,.414.321.677.677,0,0,1,.052.535c-.155.214-.775.909-1.086,1.283a1.068,1.068,0,0,0-.1-.8ZM32.94,6.679a11.147,11.147,0,0,0,.827-1.818s.207,2.192.258,3.048c.1.855.155,1.765.155,1.765s-.207.748-.62,1.818c-.31.8-.775,2.62-.827,2.834h0c0-.267-.207-2.459-.362-3.529a12.564,12.564,0,0,0-.62-2.406,5.644,5.644,0,0,0,1.19-1.711ZM29.012,5.61a16.663,16.663,0,0,1,2.429-2.139c-.052,1.337-.465,4.812-.465,4.812a18.367,18.367,0,0,0-1.654,1.6A16.241,16.241,0,0,0,27.306,12.4c0-1.337.207-4.919.207-4.919S28.082,6.679,29.012,5.61Zm-1.087-.374a9.956,9.956,0,0,0-1.034,1.978,15.918,15.918,0,0,0-2.482,1.658ZM45.5,28.28a2.888,2.888,0,0,1-1.344.267c-.465-.054-.517-.321-.672-.321a.992.992,0,0,0,.052,1.123,2.43,2.43,0,0,0,1.189.535c.414.054.724.054.672.428a3.2,3.2,0,0,1-1.757,1.818,6.281,6.281,0,0,1-2.688.374A12.578,12.578,0,0,1,39.3,29.563c-.414-.748-.879-1.978-2.429-1.069-1.085.642-.879,1.978-.672,2.782a3.38,3.38,0,0,1-.672-.481c-.155-.16-.724,0-.827.321a1.027,1.027,0,0,0,.465,1.017,7.866,7.866,0,0,1,1.447.321,33.07,33.07,0,0,0,5.117.909,5.635,5.635,0,0,0,2.791-.588c.414-.321.258-.16.414-.16.1,0-.1.428-.1.748.052.321.155.642-.1.588s-.672-.107-.724.107c-.052.16-.207,1.23-.775,1.069a43.13,43.13,0,0,0-5.014-.8,2.651,2.651,0,0,1-1.344-.267c-.208-.054.1,1.017.258,1.069a3.784,3.784,0,0,0,1.344.321A8.611,8.611,0,0,1,39.5,35.5l.155.428a5.956,5.956,0,0,0-1.551.642,2.836,2.836,0,0,1-.31-.748c0-.054-.052-.054-.1-.054h-.414c-.052,0-.052,0-.052.054v.054c.207.855.465,1.765.465,1.765a.051.051,0,0,0,.052.054H37.8c.052,0,.052-.054.1-.054a8.785,8.785,0,0,0,.62,1.765h-.568a7.024,7.024,0,0,0-1.189.107,7.335,7.335,0,0,0-.982.321,11.044,11.044,0,0,1-1.447-5.186.052.052,0,0,0-.052-.054l-.258-.214h-.1a.052.052,0,0,0-.052.054,11.266,11.266,0,0,0,.775,4.919,25.909,25.909,0,0,0-3.205.855,12.288,12.288,0,0,1-.465-2.512l1.034-.267a.052.052,0,0,0,.052-.054v-.107c-1.034-1.283-1.086-3.743-1.086-4.546a2.19,2.19,0,0,0,1.757.909A.563.563,0,0,0,33.2,33.2a.416.416,0,0,0-.1-.267A3.668,3.668,0,0,1,31.8,31.864c-.1-.16-.155-.267-.258-.267a.139.139,0,0,0-.155.16h-.052a.72.72,0,0,0-.776-.588.428.428,0,0,0-.31.107.517.517,0,0,0-.052.481.9.9,0,0,1,0,.374,17.643,17.643,0,0,0,.62,4.17,7.9,7.9,0,0,0-2.482.962,12.415,12.415,0,0,1-1.447-4.438.61.61,0,0,0,.258-.054.051.051,0,0,0,.052-.054v-.054a7.609,7.609,0,0,1-.362-2.512,12.124,12.124,0,0,1,.517-2.782v-.107l-.048-.054h-.362c-.052,0-.052,0-.1.054a10.223,10.223,0,0,0-.776,4.277,10.877,10.877,0,0,0-3.256.481,16.258,16.258,0,0,1,.155-4.919,35.068,35.068,0,0,1,1.447-5.187V21.81l-.1-.214a.179.179,0,0,0-.1-.054c-.052,0-.052,0-.052.054a37.608,37.608,0,0,0-2.223,6.9,20.6,20.6,0,0,0-.052,5.614c0,.054,0,.054.052.054h.1a.56.56,0,0,1,.207-.107,41.592,41.592,0,0,0,.569,4.223h-.258a9.455,9.455,0,0,0-1.5.16,9.836,9.836,0,0,0-1.6.428c-.258-.748-1.809-5.507-1.137-9.2a43.092,43.092,0,0,1,3.412-8.929v-.106l-.31-.321-.052-.054c-.052,0-.052,0-.052.054s-.879,1.5-1.757,3.529a40.8,40.8,0,0,0-3.774,4.811,27.093,27.093,0,0,0-3,5.881,12.641,12.641,0,0,0-2.273-.7c-.93-.16-1.344-.267-1.551-.267a15.976,15.976,0,0,1,2.119-5.025c.155.107.362.267.517.374h.1c.052,0,1.137-.7,3.1-3.529l.258-.428c1.757-2.566,2.585-3.8,5.583-5.294l.052-.054v-.054l-.207-.214a.07.07,0,0,0-.1,0,14.368,14.368,0,0,0-5.892,4.972c-1.757,2.406-2.688,2.887-2.895,2.941a8.506,8.506,0,0,0-2.482-.8,22.134,22.134,0,0,0,4.6-4.17,18.8,18.8,0,0,1,6.2-4.331.051.051,0,0,0,.052-.054v-.054l-.1-.321-.052-.054H19.76a39.294,39.294,0,0,0-4.7,2.727,15.036,15.036,0,0,1-3.774,1.444,4.814,4.814,0,0,0-.258-2.459,14.936,14.936,0,0,0,4.394-1.123A15.717,15.717,0,0,0,17.8,16.785a13.219,13.219,0,0,0,1.654-.962c.052,0,.052-.054.052-.107l-.052-.214a.052.052,0,0,0-.052-.054h-.052a16.788,16.788,0,0,1-5.169,1.711,12.483,12.483,0,0,1-1.292.107c-1.034,0-1.344-.214-1.447-.321a2.5,2.5,0,0,0,.31-1.444c.207,0,.672.054,1.292.054h0a11.8,11.8,0,0,0,3.205-.374,10,10,0,0,0,3.051-1.23h0V13.9h0l.1-.374v-.107l-.052-.054h-.466a5.016,5.016,0,0,1-3.515-1.283,2.249,2.249,0,0,0,.776-1.871,8.975,8.975,0,0,0,2.947,1.283,14.259,14.259,0,0,0,2.273.16h.775l-.155.321a7.757,7.757,0,0,0,.258,4.384,8.974,8.974,0,0,0,1.809,1.925c.207-.107.775-.748.414-.8-.31-.054-1.137-1.6-1.551-2.782a2.08,2.08,0,0,1,.052-1.283c.31-.8,1.292-1.444,1.292-1.55a2.588,2.588,0,0,0-1.447.642c.155-.588.207-.909.362-1.017a3.832,3.832,0,0,1,2.533.16,7.665,7.665,0,0,1,1.6,2.673c.052.374.052.588.207.588s.982-.16.827-.481a.052.052,0,0,0-.052-.054,8.314,8.314,0,0,1,5.841,2.139c.879.909,2.636,2.941,4.342,4.652a73.678,73.678,0,0,0,6.152,5.242,3.225,3.225,0,0,1,1.344,1.283c.053.267-.052.374-.465.588Zm-6.513,3.529c-.1-.107-.62.054-.672-.054,0-.107.414-.374.31-.481s-.62.107-.672,0c0-.107.775-.535.724-.642s-.827.16-.827.107.827-.535.724-.642-.879.214-.93.107a2.328,2.328,0,0,1,.879-.588,17.621,17.621,0,0,0,1.292,2.673c-.31-.054-.568-.107-.93-.16a2.174,2.174,0,0,1-.258-.054c.208-.054.415-.215.363-.268Z" transform="translate(-0.03 0.009)"/>
        <path id="Path_417" data-name="Path 417" d="M46.18,25.028c0-.775.155-1.034,0-1.137-.155-.155-1.447,1.189-1.292,2.068.207.879,1.6,1.809,2.068,2.068s.362.1.207-.207A11.538,11.538,0,0,1,46.18,25.028Z" transform="translate(-21.694 -11.067)"/>
      </g>
    </g>
  </g>
</svg>
